<?xml version="1.0" standalone="no"?><!DOCTYPE svg PUBLIC "-//W3C//DTD SVG 1.1//EN" "http://www.w3.org/Graphics/SVG/1.1/DTD/svg11.dtd"><svg t="1553843186643" class="icon" style="" viewBox="0 0 1024 1024" version="1.1" xmlns="http://www.w3.org/2000/svg" p-id="2748" xmlns:xlink="http://www.w3.org/1999/xlink" width="200" height="200"><defs><style type="text/css"></style></defs><path d="M512 64.021106c-247.405763 0-447.978894 200.572108-447.978894 447.978894s200.572108 447.978894 447.978894 447.978894S959.977871 759.405763 959.977871 512 759.405763 64.021106 512 64.021106z m223.989447 479.977679H543.998785v191.990662c0 17.672498-14.326287 31.998785-31.998785 31.998785s-31.998785-14.326287-31.998785-31.998785V543.998785H288.010553c-17.672498 0-31.998785-14.326287-31.998785-31.998785s14.326287-31.998785 31.998785-31.998785h191.990662V288.010553c0-17.672498 14.326287-31.998785 31.998785-31.998785s31.998785 14.326287 31.998785 31.998785v191.990662h191.990662c17.672498 0 31.998785 14.326287 31.998785 31.998785-0.001023 17.671475-14.32731 31.998785-31.998785 31.998785z" p-id="2749"></path></svg>