<?xml version="1.0" standalone="no"?><!DOCTYPE svg PUBLIC "-//W3C//DTD SVG 1.1//EN" "http://www.w3.org/Graphics/SVG/1.1/DTD/svg11.dtd"><svg t="1553764099377" class="icon" style="" viewBox="0 0 1024 1024" version="1.1" xmlns="http://www.w3.org/2000/svg" p-id="1466" xmlns:xlink="http://www.w3.org/1999/xlink" width="200" height="200"><defs><style type="text/css"></style></defs><path d="M61.44 163.84h901.12v675.84H61.44z" fill="#FFFFFF" p-id="1467"></path><path d="M983.04 880.64H40.96c-12.288 0-20.48-8.192-20.48-20.48V143.36c0-12.288 8.192-20.48 20.48-20.48h942.08c12.288 0 20.48 8.192 20.48 20.48v716.8c0 12.288-8.192 20.48-20.48 20.48zM61.44 839.68h901.12V163.84H61.44v675.84z" fill="#13173C" p-id="1468"></path><path d="M178.176 643.072c2.048-14.336 2.048-24.576 2.048-43.008v-151.552c0-20.48 0-32.768-2.048-43.008h59.392c-2.048 12.288-2.048 22.528-2.048 43.008v40.96c16.384-16.384 34.816-24.576 59.392-24.576 20.48 0 34.816 6.144 45.056 16.384 12.288 12.288 16.384 24.576 16.384 49.152v71.68c0 16.384 0 30.72 2.048 43.008h-59.392c2.048-14.336 2.048-26.624 2.048-43.008v-59.392c0-12.288-2.048-16.384-4.096-22.528-4.096-6.144-10.24-8.192-18.432-8.192-16.384 0-32.768 10.24-43.008 30.72v57.344c0 16.384 0 28.672 2.048 43.008H178.176zM411.648 462.848c0-14.336 0-26.624-2.048-38.912h59.392c-2.048 12.288-2.048 24.576-2.048 38.912v6.144h10.24c12.288 0 18.432 0 28.672-2.048v47.104c-8.192-2.048-16.384-2.048-26.624-2.048h-12.288v73.728c0 8.192 2.048 12.288 6.144 14.336 4.096 2.048 8.192 4.096 12.288 4.096 8.192 0 12.288-2.048 20.48-6.144l4.096 43.008c-12.288 4.096-24.576 6.144-38.912 6.144-20.48 0-32.768-4.096-43.008-10.24-10.24-8.192-14.336-18.432-14.336-36.864V512h-10.24c-8.192 0-16.384 0-24.576 2.048v-47.104c8.192 2.048 16.384 2.048 24.576 2.048h10.24v-6.144zM548.864 462.848c0-14.336 0-26.624-2.048-38.912h59.392c-2.048 12.288-2.048 24.576-2.048 38.912v6.144h10.24c12.288 0 18.432 0 28.672-2.048v47.104c-8.192-2.048-16.384-2.048-26.624-2.048h-12.288v73.728c0 8.192 2.048 12.288 6.144 14.336 4.096 2.048 8.192 4.096 12.288 4.096 8.192 0 12.288-2.048 20.48-6.144l4.096 43.008c-12.288 4.096-24.576 6.144-38.912 6.144-20.48 0-32.768-4.096-43.008-10.24-10.24-8.192-14.336-18.432-14.336-36.864V512h-10.24c-8.192 0-16.384 0-24.576 2.048v-47.104c8.192 2.048 16.384 2.048 24.576 2.048h10.24v-6.144zM663.552 696.32c2.048-12.288 2.048-26.624 2.048-40.96v-139.264c0-18.432 0-30.72-2.048-45.056h57.344v16.384c16.384-14.336 34.816-20.48 59.392-20.48s45.056 8.192 61.44 22.528c14.336 14.336 22.528 36.864 22.528 67.584 0 28.672-8.192 53.248-24.576 69.632-14.336 14.336-34.816 22.528-59.392 22.528-14.336 0-28.672-2.048-38.912-8.192-8.192-4.096-12.288-6.144-20.48-12.288v30.72c0 16.384 0 28.672 2.048 40.96h-59.392z m131.072-106.496c8.192-8.192 12.288-20.48 12.288-36.864 0-28.672-16.384-47.104-43.008-47.104-24.576 0-43.008 20.48-43.008 47.104 0 26.624 18.432 47.104 45.056 47.104 10.24 2.048 20.48-2.048 28.672-10.24z" fill="#FF633E" p-id="1469"></path><path d="M61.44 163.84h901.12v102.4H61.44z" fill="#3796FF" p-id="1470"></path><path d="M747.52 215.04m-30.72 0a30.72 30.72 0 1 0 61.44 0 30.72 30.72 0 1 0-61.44 0Z" fill="#FFD761" p-id="1471"></path><path d="M870.4 215.04m-30.72 0a30.72 30.72 0 1 0 61.44 0 30.72 30.72 0 1 0-61.44 0Z" fill="#B3D7FF" p-id="1472"></path></svg>