<?xml version="1.0" standalone="no"?><!DOCTYPE svg PUBLIC "-//W3C//DTD SVG 1.1//EN" "http://www.w3.org/Graphics/SVG/1.1/DTD/svg11.dtd"><svg t="1545728299268" class="icon" style="" viewBox="0 0 1024 1024" version="1.1" xmlns="http://www.w3.org/2000/svg" p-id="3003" xmlns:xlink="http://www.w3.org/1999/xlink" width="200" height="200"><defs><style type="text/css"></style></defs><path d="M1.264376 1.257151h1021.478473v1021.492923H1.264376z" fill="#769AFF" p-id="3004"></path><path d="M1.264376 1.257151l1021.471248 1021.485698M1.264376 1022.742849L1022.735624 1.257151" fill="#769AFF" p-id="3005"></path><path d="M193.514542 506.805221m-67.199774 0a67.199774 67.199774 0 1 0 134.399548 0 67.199774 67.199774 0 1 0-134.399548 0Z" fill="#FFFFFF" p-id="3006"></path><path d="M511.414775 506.805221m-67.199775 0a67.199774 67.199774 0 1 0 134.399549 0 67.199774 67.199774 0 1 0-134.399549 0Z" fill="#FFFFFF" p-id="3007"></path><path d="M829.315007 506.805221m-67.199774 0a67.199774 67.199774 0 1 0 134.399549 0 67.199774 67.199774 0 1 0-134.399549 0Z" fill="#FFFFFF" p-id="3008"></path></svg>