<?xml version="1.0" standalone="no"?><!DOCTYPE svg PUBLIC "-//W3C//DTD SVG 1.1//EN" "http://www.w3.org/Graphics/SVG/1.1/DTD/svg11.dtd"><svg t="1545804991105" class="icon" style="" viewBox="0 0 1100 1024" version="1.1" xmlns="http://www.w3.org/2000/svg" p-id="2834" xmlns:xlink="http://www.w3.org/1999/xlink" width="214.84375" height="200"><defs><style type="text/css"></style></defs><path d="M424.3968 88.0128h252.0064a38.4 38.4 0 0 0 0-76.8H424.3968a38.4 38.4 0 0 0 0 76.8zM457.8816 810.8032a38.4 38.4 0 0 0 38.4-38.4V412.7232a38.4 38.4 0 0 0-76.8 0v359.68c0 21.1968 17.2032 38.4 38.4 38.4zM642.8672 810.8032a38.4 38.4 0 0 0 38.4-38.4V412.7232a38.4 38.4 0 0 0-76.8 0v359.68c0 21.1968 17.2032 38.4 38.4 38.4z" fill="#438CFF" p-id="2835"></path><path d="M1062.2976 164.8128H38.4512a38.4 38.4 0 0 0 0 76.8h36.7616v630.4256a140.9024 140.9024 0 0 0 140.8 140.8h668.8256a140.9024 140.9024 0 0 0 140.8-140.8V241.6128h36.7104a38.4 38.4 0 1 0-0.0512-76.8z m-113.5104 707.1744c0 35.2768-28.7232 64-64 64H215.9616c-35.2768 0-64-28.7232-64-64V241.6128h796.8256v630.3744z" fill="#438CFF" p-id="2836"></path></svg>