<?xml version="1.0" standalone="no"?><!DOCTYPE svg PUBLIC "-//W3C//DTD SVG 1.1//EN" "http://www.w3.org/Graphics/SVG/1.1/DTD/svg11.dtd"><svg t="1545805076392" class="icon" style="" viewBox="0 0 1024 1024" version="1.1" xmlns="http://www.w3.org/2000/svg" p-id="6240" xmlns:xlink="http://www.w3.org/1999/xlink" width="200" height="200"><defs><style type="text/css"></style></defs><path d="M339.2 640h-32V377.6h32V320H204.8v57.6h38.4V640h-38.4v57.6h134.4zM473.6 704c12.8 0 19.2-6.4 25.6-12.8 12.8-6.4 12.8-12.8 12.8-25.6s0-19.2-6.4-25.6c-6.4-6.4-19.2-12.8-32-12.8-6.4 0-19.2 6.4-25.6 12.8-6.4 6.4-12.8 19.2-12.8 25.6 0 12.8 6.4 19.2 12.8 25.6 6.4 6.4 19.2 12.8 25.6 12.8zM627.2 704c12.8 0 19.2-6.4 25.6-12.8 6.4-6.4 12.8-19.2 12.8-25.6 0-12.8-6.4-19.2-12.8-25.6-6.4-6.4-12.8-12.8-25.6-12.8s-19.2 6.4-25.6 12.8c-6.4 6.4-12.8 19.2-12.8 25.6 0 12.8 6.4 19.2 12.8 25.6 6.4 6.4 12.8 12.8 25.6 12.8zM774.4 704c12.8 0 19.2-6.4 25.6-12.8 6.4-6.4 12.8-19.2 12.8-25.6 0-12.8-6.4-19.2-12.8-25.6-6.4-6.4-19.2-12.8-25.6-12.8-12.8 0-19.2 6.4-25.6 12.8-6.4 6.4-12.8 19.2-12.8 25.6 0 12.8 6.4 19.2 12.8 25.6 6.4 6.4 19.2 12.8 25.6 12.8z" fill="#14ADC4" p-id="6241"></path><path d="M992 0H32C12.8 0 0 12.8 0 32v960c0 19.2 12.8 32 32 32h960c19.2 0 32-12.8 32-32V32c0-19.2-12.8-32-32-32zM960 960H64V64h896v896z" fill="#14ADC4" p-id="6242"></path></svg>