<?xml version="1.0" standalone="no"?><!DOCTYPE svg PUBLIC "-//W3C//DTD SVG 1.1//EN" "http://www.w3.org/Graphics/SVG/1.1/DTD/svg11.dtd"><svg t="1536995067127" class="icon" style="" viewBox="0 0 1024 1024" version="1.1" xmlns="http://www.w3.org/2000/svg" p-id="1177" xmlns:xlink="http://www.w3.org/1999/xlink" width="200" height="200"><defs><style type="text/css"></style></defs><path d="M927.146667 603.733333l-64.853334-37.546666a22.186667 22.186667 0 0 1-10.666666-22.186667 300.8 300.8 0 0 0 0-64 22.186667 22.186667 0 0 1 10.666666-22.186667l64.853334-37.546666a64.426667 64.426667 0 0 0 23.466666-85.333334l-64-110.933333a64 64 0 0 0-87.466666-23.466667l-65.28 37.546667a22.186667 22.186667 0 0 1-24.32 0 341.333333 341.333333 0 0 0-55.466667-32 22.613333 22.613333 0 0 1-14.08-24.32V106.666667A64 64 0 0 0 576 42.666667h-128A64 64 0 0 0 384 106.666667v75.093333a22.613333 22.613333 0 0 1-14.08 20.053333 341.333333 341.333333 0 0 0-55.466667 32 22.186667 22.186667 0 0 1-24.32 0l-65.28-35.413333a64 64 0 0 0-85.333333 23.466667L73.386667 332.8a64.426667 64.426667 0 0 0 23.466666 87.466667l64.853334 37.546666a22.186667 22.186667 0 0 1 10.666666 22.186667 300.8 300.8 0 0 0 0 64 22.186667 22.186667 0 0 1-10.666666 22.186667l-64.853334 37.546666a64.426667 64.426667 0 0 0-23.466666 85.333334l64 110.933333a64 64 0 0 0 85.333333 23.466667l65.28-37.546667a22.186667 22.186667 0 0 1 24.32 2.133333 341.333333 341.333333 0 0 0 55.466667 32 22.613333 22.613333 0 0 1 14.08 20.053334v77.226666A64 64 0 0 0 448 981.333333h128a64 64 0 0 0 64-64v-75.093333a22.613333 22.613333 0 0 1 14.08-20.053333 341.333333 341.333333 0 0 0 55.466667-32 22.186667 22.186667 0 0 1 24.32-2.133334l65.28 37.546667a64 64 0 0 0 87.466666-23.466667l64-110.933333a64.426667 64.426667 0 0 0-23.466666-87.466667zM512 661.333333a149.333333 149.333333 0 1 1 149.333333-149.333333 149.333333 149.333333 0 0 1-149.333333 149.333333z" p-id="1178"></path></svg>